<?xml version="1.0" encoding="iso-8859-1"?>
<!-- Generator: Adobe Illustrator 19.0.0, SVG Export Plug-In . SVG Version: 6.00 Build 0)  -->
<svg version="1.1" id="Layer_1" xmlns="http://www.w3.org/2000/svg" xmlns:xlink="http://www.w3.org/1999/xlink" x="0px" y="0px"
	 viewBox="0 0 512 512" style="enable-background:new 0 0 512 512;" xml:space="preserve">
<circle style="fill:#25B6D2;" cx="256" cy="256" r="256"/>
<rect x="142.68" y="390.112" width="226.648" height="27.336"/>
<polygon style="fill:#EBF0F2;" points="175.136,121.888 175.136,186.808 256,255.144 256,121.888 "/>
<polygon style="fill:#CFDCE5;" points="336.864,121.888 336.864,186.808 256,255.144 256,121.888 "/>
<polygon style="fill:#EBF0F2;" points="175.136,388.4 175.136,323.48 256,255.144 256,388.4 "/>
<polygon style="fill:#CFDCE5;" points="336.864,388.4 336.864,323.48 256,255.144 256,388.4 "/>
<g>
	<polygon style="fill:#E04F5F;" points="256,332.168 191.272,390.112 320.728,390.112 	"/>
	<polygon style="fill:#E04F5F;" points="256,230.616 298.472,192.6 213.528,192.6 	"/>
</g>
<rect x="142.68" y="94.56" width="226.648" height="27.336"/>
<g>
	<rect x="142.68" y="94.56" style="fill:#606060;" width="52.008" height="27.336"/>
	<rect x="142.68" y="390.112" style="fill:#606060;" width="52.008" height="27.336"/>
</g>
<g>
</g>
<g>
</g>
<g>
</g>
<g>
</g>
<g>
</g>
<g>
</g>
<g>
</g>
<g>
</g>
<g>
</g>
<g>
</g>
<g>
</g>
<g>
</g>
<g>
</g>
<g>
</g>
<g>
</g>
</svg>
